<svg xmlns="http://www.w3.org/2000/svg" viewBox="0 0 48 48" role="img" aria-label="TikTok">
  <rect width="48" height="48" rx="14" fill="#111"/>
  <path d="M30.6 10.2c.7 4.5 3.2 7.2 7.2 7.8v6.1c-2.6.1-5-.7-7.1-2.1v10.5c0 6-4.1 9.9-9.8 9.9-5.3 0-9.3-3.5-9.3-8.7 0-5.7 4.9-9.6 10.6-8.6v6.3c-2.3-.7-4.2.4-4.2 2.3 0 1.7 1.3 2.8 3 2.8 1.9 0 3.2-1.2 3.2-3.6V10.2h6.4z" fill="#fff"/>
  <path d="M30.6 10.2c.4 2.4 1.3 4.3 2.7 5.6-1.3-.4-2.4-1.1-3.3-2.1v19.1c0 6-4.1 9.9-9.8 9.9-2.1 0-4-.6-5.5-1.6 1.6.8 3.6 1.2 5.8.8 4.3-.7 7.3-4.3 7.3-9.3V10.2h2.8z" fill="#ff2d55" opacity=".75"/>
  <path d="M37.8 18v2.9c-2.6.1-5-.7-7.1-2.1v-2.7c2 1.3 4.4 2 7.1 1.9zM22.2 25.1v3c-4.1-.8-7.8 2-7.8 6 0 2.8 1.5 5 3.8 6.2-3.9-1-6.6-4.1-6.6-8.1 0-5.7 4.9-9.6 10.6-8.6v1.5z" fill="#25f4ee" opacity=".8"/>
</svg>
