<svg xmlns="http://www.w3.org/2000/svg" viewBox="0 0 64 64" aria-label="WhatsApp"><circle cx="32" cy="32" r="30" fill="#25D366"/><path fill="#fff" d="M45.2 38.8c-.2-.1-5.4-2.7-6.2-3-.8-.3-1.4-.4-2 .4-.6.9-2.3 3-2.8 3.6-.5.6-1 .7-1.9.2-5.1-2.6-8.5-4.7-11.9-10.6-.9-1.5.9-1.4 2.6-4.8.3-.6.1-1.1-.1-1.6-.2-.5-2-4.8-2.7-6.5-.7-1.7-1.4-1.4-2-1.5h-1.7c-.6 0-1.6.2-2.4 1.1-.8.9-3.2 3.1-3.2 7.6s3.3 8.9 3.8 9.5c.5.6 6.5 9.9 15.8 13.9 5.9 2.5 8.2 2.7 11.2 2.3 1.8-.3 5.4-2.2 6.2-4.3.8-2.1.8-3.9.5-4.3-.3-.4-.8-.6-1.7-1z"/></svg>
